<svg width="32" height="32" viewBox="0 0 32 32" fill="none" xmlns="http://www.w3.org/2000/svg">
<path d="M12.306 12H9.59896C8.10548 12 7.35819 12 6.78776 12.2906C6.28599 12.5463 5.87834 12.954 5.62268 13.4557C5.33203 14.0262 5.33203 14.7735 5.33203 16.2669V23.7336C5.33203 25.2271 5.33203 25.9734 5.62268 26.5438C5.87834 27.0456 6.28599 27.454 6.78776 27.7096C7.35763 28 8.10406 28 9.59462 28H22.4028C23.8934 28 24.6387 28 25.2086 27.7096C25.7103 27.454 26.1193 27.0456 26.375 26.5438C26.6654 25.974 26.6654 25.2287 26.6654 23.7381V16.2625C26.6654 14.772 26.6654 14.0256 26.375 13.4557C26.1193 12.954 25.7103 12.5463 25.2086 12.2906C24.6381 12 23.8924 12 22.399 12H19.6906M12.306 12H19.6906M12.306 12C12.1361 12 11.9987 11.8622 11.9987 11.6923V8C11.9987 5.79086 13.7896 4 15.9987 4C18.2078 4 19.9987 5.79086 19.9987 8V11.6923C19.9987 11.8622 19.8605 12 19.6906 12" stroke="#333A3C" stroke-width="2.66667" stroke-linecap="round" stroke-linejoin="round"/>
</svg>
