<svg width="32" height="32" viewBox="0 0 32 32" fill="none" xmlns="http://www.w3.org/2000/svg">
<path d="M5.33333 8.00033L13.4768 14.15L13.4796 14.1523C14.3838 14.8154 14.8362 15.1471 15.3317 15.2753C15.7696 15.3886 16.23 15.3886 16.668 15.2753C17.1639 15.147 17.6176 14.8143 18.5234 14.15C18.5234 14.15 23.7468 10.1416 26.6667 8.00033M4 21.0673V10.9339C4 9.44045 4 8.69315 4.29065 8.12272C4.54631 7.62096 4.95396 7.2133 5.45573 6.95764C6.02616 6.66699 6.77345 6.66699 8.26693 6.66699H23.7336C25.2271 6.66699 25.9728 6.66699 26.5432 6.95764C27.045 7.2133 27.454 7.62096 27.7096 8.12272C28 8.69259 28 9.43898 28 10.9295V21.0718C28 22.5623 28 23.3076 27.7096 23.8775C27.454 24.3793 27.045 24.7876 26.5432 25.0433C25.9733 25.3337 25.228 25.3337 23.7375 25.3337H8.26255C6.77199 25.3337 6.0256 25.3337 5.45573 25.0433C4.95396 24.7876 4.54631 24.3793 4.29065 23.8775C4 23.3071 4 22.5607 4 21.0673Z" stroke="#333A3C" stroke-width="2" stroke-linecap="round" stroke-linejoin="round"/>
</svg>
