<svg width="32" height="32" viewBox="0 0 32 32" fill="none" xmlns="http://www.w3.org/2000/svg">
<path d="M4.78045 18.3717C7.15303 20.7304 11.2908 23.9999 15.9983 23.9999C20.7058 23.9999 24.8428 20.7304 27.2153 18.3717C27.8411 17.7497 28.155 17.4376 28.3542 16.8268C28.4964 16.391 28.4964 15.609 28.3542 15.1732C28.155 14.5624 27.8411 14.2503 27.2153 13.6281C24.8428 11.2694 20.7058 8 15.9983 8C11.2908 8 7.15302 11.2694 4.78045 13.6281C4.15423 14.2507 3.84109 14.5622 3.64177 15.1732C3.49962 15.609 3.49962 16.391 3.64177 16.8268C3.84109 17.4378 4.15423 17.7492 4.78045 18.3717Z" stroke="#ACB0B1" stroke-width="2.66667" stroke-linecap="round" stroke-linejoin="round"/>
<path d="M13.3314 16C13.3314 17.4728 14.5253 18.6667 15.998 18.6667C17.4708 18.6667 18.6647 17.4728 18.6647 16C18.6647 14.5272 17.4708 13.3333 15.998 13.3333C14.5253 13.3333 13.3314 14.5272 13.3314 16Z" stroke="#ACB0B1" stroke-width="2.66667" stroke-linecap="round" stroke-linejoin="round"/>
</svg>
